<?xml version="1.0" encoding="UTF-8"?><svg id="Layer_1" xmlns="http://www.w3.org/2000/svg" viewBox="0 0 205.68 202.32"><defs><style>.cls-1{fill:none;stroke:#0064a8;stroke-linecap:round;stroke-linejoin:round;stroke-width:2px;}</style></defs><path class="cls-1" d="m38.97,201.32c-8.85,0-17.18-3.07-23.46-8.64-6.32-5.62-9.8-13.1-9.8-21.06,0-.71.04-1.46.11-2.3,0-.03,0-.06,0-.1l4.94-53.9c.66-7.21,7.55-13.08,15.36-13.08h25.7c7.81,0,14.7,5.87,15.36,13.08l4.95,53.9s0,.1,0,.14c.07.88.1,1.58.1,2.25,0,16.38-14.93,29.71-33.27,29.71h0Z"/><path class="cls-1" d="m39.09,103.68v-19.13c0-4.07-3.31-7.38-7.38-7.38H11.25c-5.65,0-10.25-4.6-10.25-10.25s4.6-10.25,10.25-10.25h56.97c4.07,0,7.38-3.31,7.38-7.38s-3.31-7.38-7.38-7.38h-32.66c-5.65,0-10.25-4.6-10.25-10.25V1"/><path class="cls-1" d="m169.05,186.35c-.5,0-.96-.26-1.22-.68-18.16-29.26-25.86-46.53-29.12-55.87-.84-2.04-1.48-4.25-1.89-6.49-.14-.68-.18-1.04-.18-1.04-.24-1.57-.36-3.23-.36-4.85,0-18.06,14.7-32.76,32.77-32.76h0c18.07,0,32.76,14.7,32.76,32.76,0,1.64-.12,3.29-.37,4.9,0,0-.04.35-.18,1.02-.42,2.27-1.06,4.47-1.92,6.54-3.22,9.25-10.91,26.52-29.08,55.8-.26.42-.72.68-1.22.68Zm0-55.13h0c-9.28,0-16.82-7.55-16.82-16.82s7.55-16.82,16.82-16.82c9.27,0,16.82,7.55,16.82,16.82s-7.54,16.82-16.82,16.82Z"/><path class="cls-1" d="m188.44,170.82c10.17,3,16.25,8.22,16.25,13.96,0,9.27-15.58,16.54-35.46,16.54s-35.46-7.26-35.46-16.54c0-5.63,5.6-10.62,15.36-13.69"/><line class="cls-1" x1="8.26" y1="142.69" x2="69.7" y2="142.69"/><line class="cls-1" x1="38.99" y1="102.69" x2="38.99" y2="142.36"/><line class="cls-1" x1="129.63" y1="65.45" x2="92.01" y2="156.56"/></svg>