<?xml version="1.0" encoding="UTF-8"?><svg id="Layer_1" xmlns="http://www.w3.org/2000/svg" viewBox="0 0 207.84 117.72"><defs><style>.cls-1{fill:none;stroke:#0064a8;stroke-linecap:round;stroke-miterlimit:10;stroke-width:2px;}</style></defs><path class="cls-1" d="m163.28,22.21c-4.21-2.8-8.47-5.53-12.62-8.41-9.82-6.82-17.76-12.18-30.18-12.76-11.99-.57-21.77,5.26-28.24,15.21-5.28,8.11-12.31,14.94-18.46,22.42,0,0,3.21,13.24,14.45,8.43,11.24-4.82,32.11-22.53,32.11-22.53"/><path class="cls-1" d="m163.28,24.58c0-5.28,4.31-9.77,9.58-9.99l23.89.45c5.28.01,9.78,4.34,10.02,9.61,0,0,.18,4.09-.03,10.32-.25,7.25-.75,14.48-1.25,21.72-.51,7.36.4,33.21-8.47,36.26-2.72.94-24.15.22-24.15.22-5.27-.18-9.59-4.64-9.59-9.91V24.58Z"/><line class="cls-1" x1="163.28" y1="86.83" x2="150.44" y2="86.83"/><path class="cls-1" d="m114.53,29.32s5.08.8,7.9,6.43c4.88,9.75,10.18,19.31,15.31,28.94,3.24,6.08,6.48,12.15,9.72,18.23,2.33,4.37,7.26,11.17,4.92,16.37-2.52,5.61-11.95,5.36-16.81,3.69"/><path class="cls-1" d="m122.11,77.66c2.52,4.74,5.03,9.48,7.55,14.21,1.51,2.85,3.47,5.74,4.65,8.75,3.28,8.39-12.82,12.06-18.13,8.31"/><path class="cls-1" d="m104.02,86.83l12.15,22.1s-2.81,6.25-9.69,6.88c-6.88.63-9.07-2.19-9.07-2.19l-11.57-19.59"/><path class="cls-1" d="m44.56,83.29h12.82l16.4,28.14s6.73,10.27,23.63,2.19"/><path class="cls-1" d="m44.56,22.62h20.95s11.87-11.49,26.73-6.37"/><path class="cls-1" d="m44.56,24.58c0-5.28-4.31-9.77-9.58-9.99l-23.89.45c-5.28.01-9.78,4.34-10.02,9.61,0,0-.18,4.09.03,10.32.25,7.25.75,14.48,1.25,21.72.51,7.36-.4,33.21,8.47,36.26,2.72.94,24.15.22,24.15.22,5.27-.18,9.59-4.64,9.59-9.91V24.58Z"/><circle class="cls-1" cx="22.5" cy="79.17" r="4.77"/><circle class="cls-1" cx="185.06" cy="79.17" r="4.77"/></svg>