<?xml version="1.0" encoding="UTF-8"?><svg id="Layer_1" xmlns="http://www.w3.org/2000/svg" viewBox="0 0 208.43 209.59"><defs><style>.cls-1{fill:none;stroke:#0064a8;stroke-linecap:round;stroke-miterlimit:10;stroke-width:2px;}.cls-2{fill:#0064a8;}</style></defs><line class="cls-1" x1="207.43" y1="1" x2="1" y2="208.59"/><path class="cls-1" d="m121.93,59.31c-.06,0-.12,0-.18,0,.52-.8.83-1.76.83-2.78,0-2.83-2.29-5.12-5.13-5.12-.52,0-1.02.08-1.5.22.06-.38.1-.76.1-1.15,0-4.12-3.34-7.46-7.45-7.46-2.81,0-5.25,1.56-6.52,3.85-.92-.66-2.04-1.06-3.26-1.06-.54,0-1.06.08-1.55.22-.65-3.06-3.36-5.35-6.61-5.35-3.7,0-6.7,2.97-6.75,6.66-.78-.38-1.64-.6-2.57-.6-3.22,0-5.82,2.61-5.82,5.82,0,.98.24,1.89.67,2.7-.44-.09-.9-.14-1.37-.14-3.73,0-6.76,3.03-6.76,6.76,0,.78.14,1.53.38,2.23-.27-.07-.55-.11-.83-.11-1.94,0-3.52,1.58-3.52,3.52s1.58,3.52,3.52,3.52h54.31c3.24,0,5.87-2.63,5.87-5.87s-2.63-5.87-5.87-5.87Z"/><path class="cls-1" d="m79.8,71.06c-4.23,7.02-11.93,11.71-20.72,11.71-13.35,0-24.18-10.83-24.18-24.18s10.83-24.18,24.18-24.18c9.1,0,17.02,5.02,21.15,12.45"/><line class="cls-1" x1="59.08" y1="6.45" x2="59.08" y2="26.02"/><line class="cls-1" x1="39.13" y1="10.42" x2="46.61" y2="28.49"/><line class="cls-1" x1="22.21" y1="21.72" x2="36.05" y2="35.56"/><line class="cls-1" x1="10.91" y1="38.64" x2="28.98" y2="46.12"/><line class="cls-1" x1="6.94" y1="58.59" x2="26.51" y2="58.59"/><line class="cls-1" x1="10.91" y1="78.54" x2="28.98" y2="71.06"/><line class="cls-1" x1="22.21" y1="95.46" x2="36.05" y2="81.62"/><line class="cls-1" x1="39.13" y1="106.76" x2="46.61" y2="88.68"/><line class="cls-1" x1="59.08" y1="110.73" x2="59.08" y2="91.16"/><line class="cls-1" x1="79.03" y1="106.76" x2="71.55" y2="88.68"/><line class="cls-1" x1="95.95" y1="95.46" x2="82.11" y2="81.62"/><line class="cls-1" x1="107.25" y1="78.54" x2="89.17" y2="71.06"/><line class="cls-1" x1="107.25" y1="38.64" x2="95.99" y2="43.3"/><line class="cls-1" x1="95.95" y1="21.72" x2="82.11" y2="35.56"/><line class="cls-1" x1="79.03" y1="10.42" x2="71.55" y2="28.49"/><path class="cls-1" d="m120.68,130.42c0-2.92.55-5.71,1.54-8.28-8.24,3.52-14.01,11.69-14.01,21.22,0,12.74,10.33,23.07,23.07,23.07,9.82,0,18.2-6.14,21.53-14.79-2.78,1.19-5.84,1.85-9.06,1.85-12.74,0-23.07-10.33-23.07-23.06Z"/><polygon class="cls-2" points="49.65 195.57 47.51 194.44 45.37 195.57 45.78 193.18 44.05 191.5 46.44 191.15 47.51 188.98 48.58 191.15 50.98 191.5 49.25 193.18 49.65 195.57"/><polygon class="cls-2" points="78.55 148.62 78.96 146.23 77.23 144.54 79.62 144.19 80.69 142.02 81.77 144.19 84.16 144.54 82.43 146.23 82.84 148.62 80.69 147.49 78.55 148.62"/><polygon class="cls-2" points="93.68 178.12 91.54 176.99 89.39 178.12 89.8 175.73 88.07 174.04 90.47 173.7 91.54 171.53 92.61 173.7 95 174.04 93.27 175.73 93.68 178.12"/><polygon class="cls-2" points="199.69 190.39 197.55 189.26 195.41 190.39 195.82 188 194.09 186.31 196.48 185.97 197.55 183.8 198.62 185.97 201.02 186.31 199.29 188 199.69 190.39"/><polygon class="cls-2" points="181.65 93.5 179.51 92.37 177.36 93.5 177.77 91.11 176.04 89.42 178.44 89.07 179.51 86.9 180.58 89.07 182.97 89.42 181.24 91.11 181.65 93.5"/><polygon class="cls-2" points="151.83 87.28 149.69 86.15 147.55 87.28 147.96 84.89 146.22 83.2 148.62 82.85 149.69 80.68 150.76 82.85 153.16 83.2 151.42 84.89 151.83 87.28"/><polygon class="cls-2" points="123.09 100.06 123.49 97.67 121.76 95.98 124.16 95.63 125.23 93.46 126.3 95.63 128.69 95.98 126.96 97.67 127.37 100.06 125.23 98.93 123.09 100.06"/><polygon class="cls-2" points="153.15 198.07 151.01 196.95 148.87 198.07 149.27 195.69 147.54 194 149.94 193.65 151.01 191.48 152.08 193.65 154.47 194 152.74 195.69 153.15 198.07"/><polygon class="cls-2" points="169.49 64.38 167.35 63.25 165.2 64.38 165.61 61.99 163.88 60.3 166.27 59.95 167.35 57.78 168.42 59.95 170.81 60.3 169.08 61.99 169.49 64.38"/><polygon class="cls-2" points="194.15 75.88 192.01 74.75 189.87 75.88 190.28 73.49 188.54 71.8 190.94 71.46 192.01 69.29 193.08 71.46 195.48 71.8 193.74 73.49 194.15 75.88"/><polygon class="cls-2" points="110.35 123.97 108.21 122.84 106.07 123.97 106.48 121.59 104.75 119.9 107.14 119.55 108.21 117.38 109.28 119.55 111.68 119.9 109.94 121.59 110.35 123.97"/><polygon class="cls-2" points="178.9 128.67 179.31 126.29 177.58 124.6 179.97 124.25 181.04 122.08 182.11 124.25 184.51 124.6 182.78 126.29 183.19 128.67 181.04 127.55 178.9 128.67"/><polygon class="cls-2" points="203.48 28.21 201.34 27.08 199.19 28.21 199.6 25.82 197.87 24.13 200.26 23.78 201.33 21.61 202.41 23.78 204.8 24.13 203.07 25.82 203.48 28.21"/><polygon class="cls-2" points="186.43 49.74 186.84 47.35 185.11 45.66 187.51 45.31 188.58 43.14 189.65 45.31 192.04 45.66 190.31 47.35 190.72 49.73 188.58 48.61 186.43 49.74"/><polygon class="cls-2" points="185.7 160.19 183.56 159.06 181.41 160.19 181.82 157.8 180.09 156.11 182.48 155.76 183.55 153.59 184.63 155.76 187.02 156.11 185.29 157.8 185.7 160.19"/><polygon class="cls-2" points="164.5 110.56 162.36 109.43 160.22 110.56 160.63 108.17 158.89 106.48 161.29 106.13 162.36 103.96 163.43 106.13 165.83 106.48 164.09 108.17 164.5 110.56"/><polygon class="cls-2" points="165.14 176.67 163 175.55 160.86 176.67 161.26 174.29 159.53 172.6 161.93 172.25 163 170.08 164.07 172.25 166.46 172.6 164.73 174.29 165.14 176.67"/><polygon class="cls-2" points="56.33 176.03 54.19 174.91 52.05 176.03 52.45 173.65 50.72 171.96 53.12 171.61 54.19 169.44 55.26 171.61 57.65 171.96 55.92 173.65 56.33 176.03"/><polygon class="cls-2" points="71.09 199.33 71.5 196.94 69.76 195.25 72.16 194.9 73.23 192.73 74.3 194.9 76.7 195.25 74.96 196.94 75.37 199.33 73.23 198.2 71.09 199.33"/><polygon class="cls-2" points="118.94 191.94 119.35 189.55 117.62 187.86 120.01 187.51 121.08 185.34 122.16 187.51 124.55 187.86 122.82 189.55 123.23 191.94 121.09 190.81 118.94 191.94"/><polygon class="cls-2" points="172.14 200.58 172.55 198.19 170.81 196.51 173.21 196.16 174.28 193.99 175.35 196.16 177.75 196.51 176.01 198.2 176.42 200.58 174.28 199.45 172.14 200.58"/></svg>